<svg width="19" height="11" viewBox="0 0 19 11" fill="none" xmlns="http://www.w3.org/2000/svg">
<path d="M6.00029 6.83358L9.39462 9.54904C9.82254 9.89137 10.4463 9.82554 10.7933 9.40141L17.667 1.00024" stroke="#6CE660" stroke-width="2" stroke-linecap="round"/>
<path d="M0.200195 7.0661C0.531601 6.62481 1.15894 6.5349 1.60059 6.86591L4.16699 8.79071L4.34668 8.57001L5.88281 9.85126L5.71484 10.0573C5.0362 10.8868 3.82418 11.0343 2.9668 10.3913L0.400391 8.46649C-0.0413285 8.13511 -0.131104 7.50789 0.200195 7.0661ZM11.0596 0.366882C11.4092 -0.0599516 12.0395 -0.123872 12.4668 0.225281C12.8939 0.574747 12.9572 1.20509 12.6084 1.63251L9.0498 5.98016L7.51367 4.69989L11.0596 0.366882Z" fill="#6CE660"/>
</svg>
