<svg width="16" height="15" viewBox="0 0 16 15" fill="none" xmlns="http://www.w3.org/2000/svg">
<path d="M0.707107 4.72858L0.353553 5.08213L-1.1722e-07 4.72858L0.353553 4.37502L0.707107 4.72858ZM5.08211 14.8536C4.80597 14.8536 4.58211 14.6297 4.58211 14.3536C4.58211 14.0774 4.80597 13.8536 5.08211 13.8536L5.08211 14.3536L5.08211 14.8536ZM5.08211 9.10358L4.72855 9.45713L0.353553 5.08213L0.707107 4.72858L1.06066 4.37502L5.43566 8.75002L5.08211 9.10358ZM0.707107 4.72858L0.353553 4.37502L4.72855 2.28987e-05L5.08211 0.353576L5.43566 0.70713L1.06066 5.08213L0.707107 4.72858ZM0.707107 4.72858L0.707107 4.22858L9.89461 4.22858L9.89461 4.72858L9.89461 5.22858L0.707107 5.22858L0.707107 4.72858ZM9.89461 14.3536L9.89461 14.8536L5.08211 14.8536L5.08211 14.3536L5.08211 13.8536L9.89461 13.8536L9.89461 14.3536ZM14.7071 9.54108L15.2071 9.54108C15.2071 12.4751 12.8286 14.8536 9.89461 14.8536L9.89461 14.3536L9.89461 13.8536C12.2763 13.8536 14.2071 11.9228 14.2071 9.54108L14.7071 9.54108ZM9.89461 4.72858L9.89461 4.22858C12.8286 4.22858 15.2071 6.60706 15.2071 9.54108L14.7071 9.54108L14.2071 9.54108C14.2071 7.15935 12.2763 5.22858 9.89461 5.22858L9.89461 4.72858Z" fill="white"/>
</svg>
