<svg width="17" height="16" viewBox="0 0 17 16" fill="none" xmlns="http://www.w3.org/2000/svg">
<path d="M5.96691 3C5.96691 3.3283 6.03157 3.65339 6.15721 3.95671C6.28285 4.26002 6.46699 4.53562 6.69914 4.76777C6.93129 4.99991 7.20689 5.18406 7.5102 5.3097C7.81351 5.43534 8.1386 5.5 8.46691 5.5C8.79521 5.5 9.1203 5.43534 9.42362 5.3097C9.72693 5.18406 10.0025 4.99991 10.2347 4.76777C10.4668 4.53562 10.651 4.26002 10.7766 3.95671C10.9022 3.65339 10.9669 3.3283 10.9669 3C10.9669 2.67169 10.9022 2.3466 10.7766 2.04329C10.651 1.73998 10.4668 1.46438 10.2347 1.23223C10.0025 1.00009 9.72693 0.815937 9.42362 0.690301C9.1203 0.564664 8.79521 0.5 8.46691 0.5C8.1386 0.5 7.81351 0.564665 7.5102 0.690302C7.20688 0.815939 6.93129 1.00009 6.69914 1.23223C6.46699 1.46438 6.28284 1.73998 6.15721 2.04329C6.03157 2.34661 5.96691 2.6717 5.96691 3L5.96691 3Z" stroke="white"/>
<path d="M2.16506 9.58461C1.88074 9.74876 1.63154 9.96731 1.43168 10.2278C1.23182 10.4882 1.08522 10.7855 1.00025 11.1026C0.915278 11.4197 0.8936 11.7505 0.936452 12.076C0.979305 12.4015 1.08585 12.7154 1.25 12.9997C1.41415 13.284 1.6327 13.5332 1.89316 13.7331C2.15362 13.9329 2.4509 14.0795 2.76802 14.1645C3.08514 14.2495 3.41588 14.2711 3.74138 14.2283C4.06688 14.1854 4.38074 14.0789 4.66506 13.9147C4.94939 13.7506 5.19859 13.532 5.39845 13.2716C5.59831 13.0111 5.74491 12.7138 5.82988 12.3967C5.91485 12.0796 5.93653 11.7488 5.89368 11.4234C5.85082 11.0979 5.74428 10.784 5.58013 10.4997C5.41597 10.2153 5.19743 9.96615 4.93697 9.76629C4.67651 9.56643 4.37923 9.41983 4.06211 9.33486C3.74499 9.24988 3.41424 9.22821 3.08875 9.27106C2.76325 9.31391 2.44938 9.42046 2.16506 9.58461L2.16506 9.58461Z" stroke="white"/>
<path d="M14.7687 9.58461C15.053 9.74876 15.3022 9.96731 15.5021 10.2278C15.7019 10.4882 15.8485 10.7855 15.9335 11.1026C16.0185 11.4197 16.0402 11.7505 15.9973 12.076C15.9544 12.4015 15.8479 12.7154 15.6838 12.9997C15.5196 13.284 15.3011 13.5332 15.0406 13.7331C14.7801 13.9329 14.4829 14.0795 14.1657 14.1645C13.8486 14.2495 13.5179 14.2711 13.1924 14.2283C12.8669 14.1854 12.553 14.0789 12.2687 13.9147C11.9844 13.7506 11.7352 13.532 11.5353 13.2716C11.3354 13.0111 11.1888 12.7138 11.1039 12.3967C11.0189 12.0796 10.9972 11.7488 11.0401 11.4234C11.0829 11.0979 11.1895 10.784 11.3536 10.4997C11.5178 10.2153 11.7363 9.96615 11.9968 9.76629C12.2572 9.56643 12.5545 9.41983 12.8716 9.33486C13.1888 9.24988 13.5195 9.22821 13.845 9.27106C14.1705 9.31391 14.4844 9.42046 14.7687 9.58461L14.7687 9.58461Z" stroke="white"/>
<path d="M12.2687 13.915C12.5501 14.0775 12.8607 14.1829 13.1827 14.2266C12.5964 14.7392 11.9315 15.1562 11.2101 15.4551C10.3407 15.8152 9.40794 16 8.46691 16C7.52604 16 6.59399 15.8151 5.72472 15.4551C5.00283 15.1561 4.33669 14.7396 3.75011 14.2266C4.07244 14.183 4.38341 14.0777 4.66515 13.915C4.72111 13.8827 4.77413 13.846 4.82726 13.8096C5.22318 14.0991 5.65238 14.3427 6.10753 14.5312C6.85544 14.841 7.65741 15 8.46691 15C9.27662 15 10.0792 14.8411 10.8273 14.5312C11.2821 14.3428 11.7101 14.099 12.1056 13.8096C12.1589 13.8462 12.2125 13.8826 12.2687 13.915ZM6.15343 2.05273C6.03031 2.35335 5.96694 2.67509 5.96691 3C5.96691 3.0649 5.97067 3.12983 5.9757 3.19434C5.27953 3.50188 4.64529 3.93493 4.10656 4.47363C3.5341 5.04618 3.07949 5.72562 2.76964 6.47363C2.45974 7.22181 2.30089 8.02417 2.30089 8.83398C2.30091 9.05562 2.31336 9.27658 2.33702 9.49609C2.27889 9.5239 2.22113 9.55264 2.16515 9.58496C1.88298 9.74787 1.63474 9.96382 1.43566 10.2217C1.34579 9.76573 1.30092 9.30095 1.30089 8.83398C1.30089 7.89284 1.48566 6.96032 1.84581 6.09082C2.20597 5.2214 2.73409 4.43106 3.39952 3.76562C4.06493 3.1003 4.85538 2.573 5.72472 2.21289C5.8659 2.15442 6.00919 2.10196 6.15343 2.05273ZM10.7794 2.05273C10.9241 2.10209 11.0684 2.15423 11.2101 2.21289C12.0793 2.57304 12.87 3.10031 13.5353 3.76562C14.2006 4.43098 14.7279 5.22155 15.088 6.09082C15.4481 6.96027 15.6339 7.89291 15.6339 8.83398C15.6339 9.30077 15.5862 9.76496 15.4962 10.2207C15.2973 9.96352 15.0503 9.74755 14.7687 9.58496C14.7124 9.5525 14.6542 9.524 14.5958 9.49609C14.6196 9.27655 14.6339 9.05568 14.6339 8.83398C14.6339 8.02423 14.474 7.22176 14.1642 6.47363C13.8543 5.72564 13.3997 5.04616 12.8273 4.47363C12.2883 3.93466 11.6536 3.50194 10.9571 3.19434C10.9622 3.12981 10.9669 3.06492 10.9669 3C10.9669 2.67498 10.9026 2.35344 10.7794 2.05273Z" fill="white"/>
</svg>
